<svg width="21" height="22" viewBox="0 0 21 22" fill="none" xmlns="http://www.w3.org/2000/svg">
<path d="M9.77169 2.74358C12.1132 0.399998 15.9121 0.399998 18.2553 2.74314C20.5384 5.02621 20.5969 8.69142 18.4309 11.0454L18.2428 11.2427L9.44273 20.0409L9.40616 20.0712C7.94492 21.3879 5.69092 21.3432 4.28355 19.9358C2.96453 18.6168 2.84241 16.5541 3.9172 15.0974C3.94054 15.0521 3.96879 15.0083 4.002 14.9672L4.05556 14.9075L4.14247 14.8198L4.28355 14.6719L4.28647 14.6748L11.7222 7.22047C11.9881 6.95385 12.4047 6.92909 12.6986 7.14656L12.7829 7.21906C13.0495 7.48497 13.0742 7.9016 12.8568 8.19551L12.7843 8.27972L5.18966 15.8928C4.47202 16.7684 4.5219 18.0627 5.3393 18.8801C6.16836 19.7091 7.48801 19.7486 8.3638 18.9985L17.1965 10.1681C18.952 8.41041 18.952 5.56116 17.1946 3.8038C15.4922 2.10136 12.765 2.04816 10.9986 3.6442L10.8307 3.8038L10.8181 3.81812L1.28179 13.3544C0.988902 13.6473 0.514028 13.6473 0.221135 13.3544C-0.0451319 13.0882 -0.0693378 12.6715 0.148517 12.3779L0.221135 12.2938L9.77001 2.74314L9.77169 2.74358Z" fill="#8A8A8A"/>
</svg>
