<svg width="16" height="16" viewBox="0 0 16 16" fill="none" xmlns="http://www.w3.org/2000/svg">
<path d="M8 0C12.4183 0 16 3.58172 16 8C16 12.4183 12.4183 16 8 16C6.72679 16 5.49591 15.7018 4.38669 15.1393L4.266 15.075L0.621091 15.9851C0.311269 16.0625 0.0262241 15.8369 0.00130987 15.5438L0.00114131 15.4624L0.0149329 15.3787L0.925 11.735L0.86169 11.6153C0.406602 10.7186 0.124331 9.74223 0.0327466 8.72826L0.00737596 8.34634L0 8C0 3.58172 3.58172 0 8 0ZM8.5 9H5.5L5.41012 9.00806C5.17688 9.05039 5 9.25454 5 9.5C5 9.74546 5.17688 9.94961 5.41012 9.99194L5.5 10H8.5L8.58988 9.99194C8.82312 9.94961 9 9.74546 9 9.5C9 9.25454 8.82312 9.05039 8.58988 9.00806L8.5 9ZM10.5 6H5.5L5.41012 6.00806C5.17688 6.05039 5 6.25454 5 6.5C5 6.74546 5.17688 6.94961 5.41012 6.99194L5.5 7H10.5L10.5899 6.99194C10.8231 6.94961 11 6.74546 11 6.5C11 6.25454 10.8231 6.05039 10.5899 6.00806L10.5 6Z" fill="white"/>
</svg>
