<svg width="20" height="20" viewBox="0 0 20 20" fill="none" xmlns="http://www.w3.org/2000/svg">
<path d="M1.99951 10C1.99951 5.58148 5.58144 1.99955 9.99997 1.99955C14.4185 1.99955 18.0004 5.58148 18.0004 10C18.0004 14.4185 14.4185 18.0005 9.99997 18.0005C5.58144 18.0005 1.99951 14.4185 1.99951 10ZM9.99997 2.99955C9.91472 2.99955 9.82983 3.00107 9.74531 3.0041C9.86268 3.22627 9.99793 3.50898 10.1178 3.82752C10.3985 4.57322 10.6444 5.64494 10.2028 6.58523C9.79865 7.4459 9.1059 7.66941 8.57058 7.80773L8.474 7.83258C7.968 7.96253 7.71878 8.02653 7.54417 8.29164C7.374 8.54998 7.41508 8.86611 7.58071 9.40585C7.59287 9.44549 7.60588 9.48695 7.61933 9.52981C7.68555 9.74093 7.76252 9.98629 7.8027 10.2172C7.85253 10.5037 7.86376 10.853 7.68965 11.1871C7.51052 11.5308 7.27563 11.7613 7.00024 11.9113C6.73952 12.0533 6.46734 12.1084 6.2532 12.1464L6.16534 12.1618C5.75755 12.2332 5.52013 12.2748 5.29811 12.5126C5.1208 12.7026 5.01944 13.0207 4.96166 13.4541C4.93793 13.632 4.92366 13.8086 4.90917 13.9877L4.90145 14.0826C4.88505 14.2815 4.86529 14.5012 4.82288 14.6876L4.81841 14.7073C6.09898 16.116 7.94619 17.0005 9.99997 17.0005C11.3507 17.0005 12.612 16.6179 13.6816 15.9553C13.596 15.8699 13.5007 15.7668 13.4071 15.649C13.136 15.3076 12.7979 14.74 12.9153 14.0794C12.9711 13.7653 13.1406 13.4973 13.3122 13.2846C13.4865 13.0685 13.6983 12.8673 13.8881 12.6926C13.9321 12.6521 13.9747 12.6132 14.0158 12.5757C14.1619 12.4423 14.2892 12.3261 14.3979 12.2122C14.5449 12.0582 14.5894 11.9759 14.5974 11.9493C14.6656 11.7239 14.5848 11.5451 14.4721 11.4579C14.3775 11.3848 14.1768 11.3157 13.8614 11.5155C13.7427 11.5907 13.6343 11.6566 13.5388 11.7067C13.4524 11.7521 13.3334 11.8084 13.2031 11.829C13.0463 11.8539 12.8281 11.8306 12.6588 11.6512C12.5304 11.5151 12.4952 11.3499 12.4813 11.2761C12.4646 11.187 12.4567 11.0865 12.4504 11.0009L12.4456 10.9341C12.4403 10.8605 12.4349 10.7838 12.4268 10.6967C12.4061 10.4751 12.3691 10.2006 12.2832 9.87112C12.1555 9.38059 11.8428 8.98337 11.5193 8.57236C11.4719 8.51219 11.4242 8.45159 11.3769 8.39049C11.2174 8.18434 11.0142 7.91215 10.9405 7.62123C10.8989 7.45717 10.8922 7.26728 10.9655 7.07344C11.0374 6.88321 11.1682 6.73741 11.317 6.6258C11.745 6.3048 12.4446 5.61303 13.0602 4.97337C13.3626 4.65912 13.6364 4.3662 13.8348 4.15175C13.8366 4.1498 13.8384 4.14786 13.8402 4.14592C12.7376 3.42118 11.418 2.99955 9.99997 2.99955ZM14.6378 4.75614C14.616 4.77981 14.593 4.8047 14.5689 4.83074C14.3675 5.04853 14.0889 5.34649 13.7807 5.66678C13.1785 6.29252 12.4293 7.03938 11.9259 7.41912C11.9561 7.48556 12.0261 7.5954 12.1678 7.77848C12.2056 7.82738 12.2475 7.87995 12.2921 7.93607C12.6082 8.33325 13.0658 8.90828 13.251 9.61906C13.3539 10.0144 13.3982 10.3446 13.4224 10.6038L13.4233 10.6129C14.0113 10.2834 14.6326 10.3179 15.0838 10.6668C15.5418 11.021 15.7364 11.6376 15.5546 12.2387C15.4736 12.5068 15.2822 12.734 15.1212 12.9027C14.9863 13.044 14.8249 13.1913 14.6752 13.3279C14.6376 13.3621 14.6008 13.3957 14.5653 13.4284C14.3774 13.6013 14.2141 13.7593 14.0905 13.9125C13.9642 14.0691 13.913 14.1805 13.8998 14.2543C13.8595 14.4812 13.9717 14.7519 14.1901 15.027C14.2913 15.1543 14.3985 15.261 14.4812 15.3362C14.4897 15.3438 14.4978 15.3511 14.5056 15.358C16.0311 14.0738 17.0004 12.1501 17.0004 10C17.0004 7.91268 16.0869 6.03872 14.6378 4.75614ZM8.7977 3.35404C8.7446 3.2583 8.69859 3.1811 8.66506 3.12668C5.4373 3.74987 2.99951 6.59025 2.99951 10C2.99951 11.2829 3.34462 12.4853 3.94707 13.5192C3.95393 13.4541 3.96162 13.388 3.97043 13.3219C4.03275 12.8545 4.16345 12.2627 4.5671 11.8303C5.02915 11.3353 5.59251 11.2423 5.97096 11.1799C6.00878 11.1737 6.04475 11.1677 6.0786 11.1617C6.28193 11.1257 6.41447 11.0916 6.52183 11.0332C6.61452 10.9827 6.71106 10.9011 6.80284 10.725C6.83129 10.6704 6.8503 10.5772 6.8175 10.3886C6.78968 10.2287 6.73738 10.0612 6.67217 9.85219C6.657 9.80358 6.64113 9.75273 6.62471 9.69922C6.47215 9.20208 6.25085 8.43719 6.70905 7.74156C7.10881 7.13465 7.74852 6.97917 8.18614 6.8728C8.23345 6.8613 8.27839 6.85038 8.32042 6.83952C8.78744 6.71885 9.09233 6.5974 9.29766 6.16016C9.55891 5.60386 9.44087 4.86775 9.18193 4.17979C9.05787 3.85019 8.91257 3.56117 8.7977 3.35404Z" fill="white"/>
</svg>
