<svg width="21" height="21" viewBox="0 0 21 21" fill="none" xmlns="http://www.w3.org/2000/svg">
<path d="M10.9996 -0.000976562C16.5233 -0.000976562 21.0011 4.47687 21.0011 10.0006C21.0011 15.5243 16.5233 20.0021 10.9996 20.0021C5.47589 20.0021 0.998047 15.5243 0.998047 10.0006C0.998047 4.47687 5.47589 -0.000976562 10.9996 -0.000976562ZM10.9996 1.49902C6.30432 1.49902 2.49805 5.3053 2.49805 10.0006C2.49805 14.6959 6.30432 18.5021 10.9996 18.5021C15.6949 18.5021 19.5011 14.6959 19.5011 10.0006C19.5011 5.3053 15.6949 1.49902 10.9996 1.49902ZM7.46134 12.7839C8.31047 13.8616 9.60149 14.5021 10.9996 14.5021C12.3958 14.5021 13.6853 13.8633 14.5345 12.7881C14.7913 12.463 15.2629 12.4076 15.588 12.6644C15.913 12.9211 15.9684 13.3927 15.7117 13.7178C14.5809 15.1495 12.8597 16.0021 10.9996 16.0021C9.13695 16.0021 7.41371 15.1472 6.28311 13.7122C6.02676 13.3869 6.08271 12.9153 6.40806 12.6589C6.73342 12.4026 7.20499 12.4585 7.46134 12.7839ZM8.00005 6.75121C8.69001 6.75121 9.24933 7.31054 9.24933 8.0005C9.24933 8.69047 8.69001 9.24979 8.00005 9.24979C7.31008 9.24979 6.75076 8.69047 6.75076 8.0005C6.75076 7.31054 7.31008 6.75121 8.00005 6.75121ZM14 6.75121C14.69 6.75121 15.2493 7.31054 15.2493 8.0005C15.2493 8.69047 14.69 9.24979 14 9.24979C13.3101 9.24979 12.7508 8.69047 12.7508 8.0005C12.7508 7.31054 13.3101 6.75121 14 6.75121Z" fill="#8A8A8A"/>
</svg>
