<svg width="15" height="16" viewBox="0 0 15 16" fill="none" xmlns="http://www.w3.org/2000/svg">
<path d="M6.9979 0C10.1469 0 12.7418 2.33488 12.9824 5.3554L12.9958 5.57762L13.0003 5.80214L12.9993 9.398L13.9247 11.6202C13.9472 11.6743 13.9649 11.7302 13.9776 11.7871L13.9929 11.8733L14.0015 12.0046C14.0015 12.4526 13.705 12.8387 13.2524 12.9677L13.136 12.9945L13.0015 13.0046L9.49986 13.004L9.49488 13.1653C9.40977 14.469 8.32542 15.5 7.00026 15.5C5.67478 15.5 4.59022 14.4685 4.50558 13.1644L4.49986 13.004L0.999153 13.0046C0.911201 13.0046 0.823829 12.993 0.739266 12.9702L0.614807 12.9277C0.204025 12.7567 -0.0379439 12.3392 0.0124571 11.8757L0.0335445 11.7483L0.0759637 11.6202L0.99926 9.401L1.00035 5.79281L1.00465 5.56824C1.12726 2.45115 3.77129 0 6.9979 0ZM8.49986 13.004H5.49986L5.50722 13.1454C5.57576 13.8581 6.143 14.425 6.8558 14.4931L7.00026 14.5C7.77996 14.5 8.42071 13.9051 8.49339 13.1445L8.49986 13.004ZM6.9979 1C4.37535 1 2.22741 2.92372 2.0174 5.38498L2.00417 5.59723L2.00026 5.80214V9.5L1.96185 9.69217L0.999142 12.0046L12.9569 12.0066L13.0021 12.0045L12.0387 9.6922L12.0003 9.5L12.0004 5.81241L11.9963 5.60831C11.8911 3.0349 9.6949 1 6.9979 1Z" fill="white"/>
</svg>
